<svg width="200" height="200" viewBox="0 0 200 200" fill="none" xmlns="http://www.w3.org/2000/svg">
  <rect width="200" height="200" fill="#F8F8F8"/>
  <rect x="40" y="60" width="120" height="80" fill="#FF9999" stroke="#333333" stroke-width="2"/>
  <rect x="50" y="70" width="100" height="60" fill="#FFFFFF" stroke="#333333" stroke-width="1"/>
  <path d="M70 150L70 140L130 140L130 150" stroke="#333333" stroke-width="2"/>
  <path d="M70 50L70 60L130 60L130 50" stroke="#333333" stroke-width="2"/>
  <text x="100" y="110" font-family="Arial" font-size="14" text-anchor="middle" fill="#333333">Gift Box</text>
  <path d="M100 60L100 140" stroke="#FF9999" stroke-width="2"/>
  <path d="M70 100L130 100" stroke="#FF9999" stroke-width="2"/>
  <path d="M110 50C110 50 120 40 100 40C80 40 90 50 90 50" stroke="#FF9999" stroke-width="2"/>
  <path d="M130 90C130 90 140 100 140 80C140 60 130 70 130 70" stroke="#FF9999" stroke-width="2"/>
</svg>
